<svg width="71" height="71" viewBox="0 0 71 71" fill="none" xmlns="http://www.w3.org/2000/svg">
<path d="M25.5 13.8086C29.2712 13.8086 31.1566 13.8089 32.3281 14.9805C33.4997 16.152 33.5 18.0374 33.5 21.8086V48.8086C33.5 52.5798 33.4997 54.4651 32.3281 55.6367C31.1566 56.8083 29.2712 56.8086 25.5 56.8086H21.5C15.8431 56.8086 13.0152 56.8081 11.2578 55.0508C9.50045 53.2934 9.5 50.4654 9.5 44.8086V25.8086C9.5 20.1517 9.50045 17.3238 11.2578 15.5664C13.0152 13.809 15.8431 13.8086 21.5 13.8086H25.5ZM25 32.8086C23.5955 32.8086 22.8931 32.8084 22.3887 33.1455C22.1703 33.2914 21.9828 33.4789 21.8369 33.6973C21.4999 34.2017 21.5 34.9041 21.5 36.3086C21.5 37.7131 21.4999 38.4155 21.8369 38.9199C21.9828 39.1383 22.1703 39.3258 22.3887 39.4717C22.8931 39.8087 23.5955 39.8086 25 39.8086C26.4045 39.8086 27.1069 39.8087 27.6113 39.4717C27.8297 39.3258 28.0172 39.1383 28.1631 38.9199C28.5001 38.4155 28.5 37.7131 28.5 36.3086C28.5 34.9041 28.5001 34.2017 28.1631 33.6973C28.0172 33.4789 27.8297 33.2914 27.6113 33.1455C27.1069 32.8084 26.4045 32.8086 25 32.8086Z" fill="#1E89F4"/>
<path d="M45.5 13.8086C41.7288 13.8086 39.8434 13.8089 38.6719 14.9805C37.5003 16.152 37.5 18.0374 37.5 21.8086V48.8086C37.5 52.5798 37.5003 54.4651 38.6719 55.6367C39.8434 56.8083 41.7288 56.8086 45.5 56.8086H49.5C55.1569 56.8086 57.9848 56.8081 59.7422 55.0508C61.4995 53.2934 61.5 50.4654 61.5 44.8086V25.8086C61.5 20.1517 61.4995 17.3238 59.7422 15.5664C57.9848 13.809 55.1569 13.8086 49.5 13.8086H45.5ZM46 32.8086C47.4045 32.8086 48.1069 32.8084 48.6113 33.1455C48.8297 33.2914 49.0172 33.4789 49.1631 33.6973C49.5001 34.2017 49.5 34.9041 49.5 36.3086C49.5 37.7131 49.5001 38.4155 49.1631 38.9199C49.0172 39.1383 48.8297 39.3258 48.6113 39.4717C48.1069 39.8087 47.4045 39.8086 46 39.8086C44.5955 39.8086 43.8931 39.8087 43.3887 39.4717C43.1703 39.3258 42.9828 39.1383 42.8369 38.9199C42.4999 38.4155 42.5 37.7131 42.5 36.3086C42.5 34.9041 42.4999 34.2017 42.8369 33.6973C42.9828 33.4789 43.1703 33.2914 43.3887 33.1455C43.8931 32.8084 44.5955 32.8086 46 32.8086Z" fill="#1E89F4"/>
</svg>
