<svg width="300" height="91" viewBox="0 0 300 91" fill="none" xmlns="http://www.w3.org/2000/svg">
<path d="M33.433 26.9512C36.6655 26.9512 38.2815 26.9514 39.2857 27.9556C40.2899 28.9598 40.2902 30.5758 40.2902 33.8083V56.9512C40.2902 60.1837 40.2899 61.7996 39.2857 62.8039C38.2815 63.8081 36.6655 63.8083 33.433 63.8083H30.0045C25.1557 63.8083 22.7318 63.8079 21.2254 62.3016C19.7191 60.7953 19.7188 58.3713 19.7188 53.5226V37.2369C19.7188 32.3882 19.7191 29.9642 21.2254 28.4579C22.7318 26.9516 25.1557 26.9512 30.0045 26.9512H33.433ZM33.0045 43.2369C31.8006 43.2369 31.1986 43.2368 30.7662 43.5257C30.579 43.6507 30.4183 43.8115 30.2932 43.9986C30.0043 44.431 30.0045 45.0331 30.0045 46.2369C30.0045 47.4407 30.0043 48.0428 30.2932 48.4752C30.4183 48.6623 30.579 48.823 30.7662 48.9481C31.1986 49.237 31.8006 49.2369 33.0045 49.2369C34.2083 49.2369 34.8104 49.237 35.2427 48.9481C35.4299 48.823 35.5906 48.6623 35.7157 48.4752C36.0046 48.0428 36.0045 47.4407 36.0045 46.2369C36.0045 45.0331 36.0046 44.431 35.7157 43.9986C35.5906 43.8115 35.4299 43.6507 35.2427 43.5257C34.8104 43.2368 34.2083 43.2369 33.0045 43.2369Z" fill="#1E89F4"/>
<path d="M50.5748 26.9512C47.3423 26.9512 45.7263 26.9514 44.7221 27.9556C43.7179 28.9598 43.7176 30.5758 43.7176 33.8083V56.9512C43.7176 60.1837 43.7179 61.7996 44.7221 62.8039C45.7263 63.8081 47.3423 63.8083 50.5748 63.8083H54.0033C58.8521 63.8083 61.2761 63.8079 62.7824 62.3016C64.2887 60.7953 64.2891 58.3713 64.2891 53.5226V37.2369C64.2891 32.3882 64.2887 29.9642 62.7824 28.4579C61.2761 26.9516 58.8521 26.9512 54.0033 26.9512H50.5748ZM51.0033 43.2369C52.2072 43.2369 52.8092 43.2368 53.2416 43.5257C53.4288 43.6507 53.5895 43.8115 53.7146 43.9986C54.0035 44.431 54.0033 45.0331 54.0033 46.2369C54.0033 47.4407 54.0035 48.0428 53.7146 48.4752C53.5895 48.6623 53.4288 48.823 53.2416 48.9481C52.8092 49.237 52.2072 49.2369 51.0033 49.2369C49.7995 49.2369 49.1974 49.237 48.7651 48.9481C48.5779 48.823 48.4172 48.6623 48.2921 48.4752C48.0032 48.0428 48.0033 47.4407 48.0033 46.2369C48.0033 45.0331 48.0032 44.431 48.2921 43.9986C48.4172 43.8115 48.5779 43.6507 48.7651 43.5257C49.1974 43.2368 49.7995 43.2369 51.0033 43.2369Z" fill="#1E89F4"/>
<path d="M271.826 29.8064C271.826 29.0436 272.201 28.6804 272.987 28.6804H275.722C276.508 28.6804 276.883 29.0436 276.883 29.8064V60.101C276.883 60.8638 276.508 61.2271 275.722 61.2271H272.987C272.201 61.2271 271.826 60.8638 271.826 60.101V46.1161H270.291C269.466 46.1161 268.83 46.6973 268.83 47.4964V60.101C268.83 60.8638 268.455 61.2271 267.669 61.2271H264.934C264.148 61.2271 263.773 60.8638 263.773 60.101V30.1697C263.773 29.4069 264.148 29.0436 264.934 29.0436H267.669C268.455 29.0436 268.83 29.4069 268.83 30.1697V41.7209C269.167 41.285 269.766 41.0307 270.403 41.0307H271.826V29.8064ZM253.585 38.6333C258.679 38.6333 260.814 41.9025 260.814 47.4601C260.814 53.0178 258.679 56.287 253.585 56.287C248.491 56.287 246.356 53.0178 246.356 47.4601C246.356 41.9025 248.491 38.6333 253.585 38.6333ZM256.057 30.8962C256.057 31.3684 256.394 31.6953 257.069 31.6953H260.739C261.526 31.6953 261.975 32.1312 261.975 32.894V35.4004C261.975 36.1632 261.526 36.5991 260.739 36.5991H246.468C245.682 36.5991 245.232 36.1632 245.232 35.4004V32.894C245.232 32.1312 245.682 31.6953 246.468 31.6953H251.75C251.375 31.4774 251.188 31.1504 251.188 30.6419V28.9347C251.188 28.1718 251.562 27.8086 252.349 27.8086H254.896C255.683 27.8086 256.057 28.1718 256.057 28.9347V30.8962ZM253.585 51.4558C255.233 51.4558 255.832 50.0028 255.832 47.4601C255.832 44.9174 255.233 43.4644 253.585 43.4644C251.937 43.4644 251.338 44.9174 251.338 47.4601C251.338 50.0028 251.937 51.4558 253.585 51.4558Z" fill="#1E89F4"/>
<path d="M224.693 39.5054C219.899 39.5054 218.775 39.7959 218.775 41.1036C218.775 42.4113 220.011 42.8472 223.831 42.8472C225.442 42.8472 227.652 42.6656 229.75 42.0844C229.974 42.0117 230.162 42.0117 230.311 42.0117C230.761 42.0117 231.023 42.2297 231.173 42.7746L231.697 44.6997C231.922 45.4626 231.622 45.8985 230.836 46.1527C228.738 46.8066 226.004 47.2061 223.307 47.2061C216.115 47.2061 213.344 45.5352 213.344 41.2126C213.344 36.6357 216.003 35.1464 224.094 35.1464C225.854 35.1464 227.615 35.2554 229 35.4733C229.75 35.5823 230.049 35.9456 230.049 36.7447V38.7425C230.049 39.5054 229.6 39.8686 228.813 39.7596C227.39 39.578 225.892 39.5054 224.693 39.5054ZM229.487 29.5161C230.274 29.5161 230.723 29.952 230.723 30.7148V32.5674C230.723 33.3302 230.274 33.7661 229.487 33.7661H214.992C214.205 33.7661 213.756 33.3302 213.756 32.5674V30.7148C213.756 29.952 214.205 29.5161 214.992 29.5161H229.487ZM239.563 45.8621C239.563 46.6249 239.114 47.0608 238.327 47.0608H235.368C234.581 47.0608 234.132 46.6249 234.132 45.8621V29.8794C234.132 29.1166 234.581 28.6807 235.368 28.6807H238.327C239.114 28.6807 239.563 29.1166 239.563 29.8794V35.8729C239.975 35.2554 240.837 34.8558 241.885 34.8558H243.084C243.833 34.8558 244.245 35.2554 244.245 35.9819V38.6336C244.245 39.3601 243.833 39.7596 243.084 39.7596H241.735C240.462 39.7596 239.563 40.5951 239.563 41.7575V45.8621ZM231.959 49.4583C237.091 49.4583 239.451 51.5287 239.451 55.8877C239.451 58.1398 239.338 59.4112 239.226 60.2829C239.114 61.0458 238.776 61.409 237.99 61.409H234.956C234.169 61.409 233.682 60.9731 233.795 60.2103C233.945 59.0842 234.019 58.2124 234.019 57.0137C234.019 55.1612 233.195 54.3621 231.135 54.3621C225.554 54.3621 221.247 54.7253 217.052 55.0159C216.303 55.0522 215.891 54.6163 215.891 53.8898V51.2381C215.891 50.5117 216.303 50.1847 217.052 50.1121C220.798 49.7125 224.955 49.4583 231.959 49.4583Z" fill="#1E89F4"/>
<path d="M191.381 37.1438L191.493 39.069C191.531 39.9044 191.943 40.2677 192.879 40.2677H202.393C203.329 40.2677 203.741 39.9044 203.779 39.069L203.891 37.1438H191.381ZM200.37 54.4342V58.7568C200.37 59.5196 199.958 59.9555 199.172 59.9555H196.175C195.389 59.9555 194.939 59.5196 194.939 58.7568V54.6885C194.939 53.9257 195.389 53.2355 196.063 52.9449C191.418 52.9086 187.111 52.727 184.189 52.3274C183.328 52.2184 182.953 51.8552 182.953 51.165V48.477C182.953 47.7142 183.403 47.2783 184.189 47.3873C187.41 47.7868 192.355 48.0048 197.598 48.0048C203.442 48.0048 208.76 47.7505 211.083 47.3873C211.869 47.242 212.356 47.7142 212.356 48.477V51.165C212.356 51.8188 211.982 52.1821 211.12 52.3274C209.322 52.618 205.801 52.9086 201.981 52.9086C200.895 52.9086 200.37 53.4534 200.37 54.4342ZM204.191 45.0988H191.081C188.01 45.0988 186.287 43.6822 186.137 40.9942L185.575 30.678C185.538 29.9515 186.025 29.5156 186.811 29.5156H189.77C190.632 29.5156 191.006 29.8062 191.044 30.569L191.119 32.3126H204.153L204.228 30.569C204.266 29.8425 204.64 29.5156 205.502 29.5156H208.461C209.285 29.5156 209.734 29.9515 209.697 30.678L209.135 40.9942C208.985 43.6822 207.262 45.0988 204.191 45.0988Z" fill="#1E89F4"/>
<path d="M149.171 34.8555C149.171 36.1632 150.744 36.5627 155.988 36.5627C161.232 36.5627 162.805 36.1632 162.805 34.8555C162.805 33.5115 161.307 33.1119 155.988 33.1119C150.67 33.1119 149.171 33.5115 149.171 34.8555ZM166.963 56.2143C164.229 56.2143 162.318 56.1053 155.464 56.1053C149.958 56.1053 148.984 56.3232 148.984 57.086C148.984 57.8852 150.145 57.9578 157.524 57.9578C160.595 57.9578 165.277 57.7399 167.749 57.304C168.349 57.195 168.761 57.4856 168.798 58.0668L168.986 60.1736C169.023 60.6822 168.686 61.0454 168.124 61.1181C165.427 61.4813 160.633 61.7719 157.561 61.7719C146.737 61.7719 143.553 60.8638 143.553 57.0134C143.553 53.1993 147.224 52.2912 155.389 52.2912C157.449 52.2912 159.809 52.2549 161.457 52.2549C162.431 52.2549 162.843 52.0369 162.843 51.5284C162.843 50.9835 162.468 50.7656 161.532 50.7656C157.973 50.7656 149.696 51.0199 145.276 51.3831C144.677 51.4194 144.302 51.0925 144.302 50.5113V48.4045C144.302 47.8596 144.602 47.569 145.276 47.5327C150.932 47.1331 158.685 46.9152 164.491 47.0968C166.888 47.1695 168.236 48.0049 168.236 49.7485C168.236 51.1652 167.412 52.1822 166.064 52.6181H166.963C167.525 52.6181 167.937 52.9451 167.937 53.4536V55.3425C167.937 55.851 167.562 56.2143 166.963 56.2143ZM155.651 41.7571C161.494 41.7571 166.888 41.6845 169.21 41.4665C169.997 41.3939 170.409 41.7208 170.409 42.4836V44.4088C170.409 45.0626 170.109 45.4259 169.248 45.4985C166.925 45.7165 161.532 45.7891 155.689 45.7891C150.445 45.7891 145.426 45.7528 142.167 45.4985C141.306 45.4259 141.006 45.099 141.006 44.4088V42.4836C141.006 41.7208 141.38 41.3939 142.167 41.4665C145.388 41.7208 150.407 41.7571 155.651 41.7571ZM155.988 29.1162C164.753 29.1162 168.236 30.7508 168.236 34.8555C168.236 38.9238 164.753 40.5584 155.988 40.5584C147.224 40.5584 143.74 38.9238 143.74 34.8555C143.74 30.7508 147.224 29.1162 155.988 29.1162Z" fill="#1E89F4"/>
<path d="M112.489 54.7253C112.489 49.9668 116.572 47.642 124.925 47.642C133.278 47.642 137.36 49.9668 137.36 54.7253C137.36 59.4838 133.278 61.8086 124.925 61.8086C116.572 61.8086 112.489 59.4838 112.489 54.7253ZM126.648 29.5161C127.434 29.5161 127.884 29.952 127.884 30.7148V33.2212C127.884 33.984 127.434 34.4199 126.648 34.4199H121.704V35.0011C121.704 38.4883 123.876 40.4861 126.91 40.4861C127.697 40.4861 128.071 40.8494 128.071 41.5395V44.2639C128.071 44.9903 127.697 45.3899 126.91 45.3899C123.239 45.3899 120.056 43.7553 119.044 40.7041C117.995 43.7553 114.812 45.3899 111.066 45.3899C110.242 45.3899 109.83 44.954 109.83 44.2639V41.5395C109.83 40.8494 110.242 40.4861 111.066 40.4861C114.1 40.4861 116.273 38.4883 116.273 35.0011V34.4199H111.253C110.467 34.4199 110.017 33.984 110.017 33.2212V30.7148C110.017 29.952 110.467 29.5161 111.253 29.5161H126.648ZM136.536 45.1356C136.536 45.8985 136.087 46.3343 135.3 46.3343H132.341C131.555 46.3343 131.105 45.8985 131.105 45.1356V29.8794C131.105 29.1166 131.555 28.6807 132.341 28.6807H135.3C136.087 28.6807 136.536 29.1166 136.536 29.8794V35.5097C136.948 34.8921 137.81 34.4926 138.859 34.4926H140.057C140.806 34.4926 141.218 34.8921 141.218 35.6186V38.2703C141.218 38.9968 140.806 39.3964 140.057 39.3964H138.709C137.435 39.3964 136.536 40.2318 136.536 41.3942V45.1356ZM124.925 57.0864C130.244 57.0864 131.929 56.4689 131.929 54.7253C131.929 52.9817 130.244 52.3642 124.925 52.3642C119.606 52.3642 117.921 52.9817 117.921 54.7253C117.921 56.4689 119.606 57.0864 124.925 57.0864Z" fill="#1E89F4"/>
<path d="M81.7382 35.7999C81.7382 31.1141 85.4089 29.1162 93.9863 29.1162C102.564 29.1162 106.234 31.1141 106.234 35.7999C106.234 40.0135 103.275 42.0477 96.421 42.411V43.537C96.421 44.2272 96.8704 44.6268 97.7694 44.6631C99.6047 44.7357 104.212 44.5904 107.133 44.3725C107.92 44.2998 108.407 44.6994 108.407 45.4622V47.6054C108.407 48.2592 108.032 48.6951 107.171 48.7677C104.849 48.9857 99.5298 49.0583 93.6867 49.0583C88.4428 49.0583 83.4986 49.022 80.24 48.7677C79.3785 48.6951 79.0039 48.2955 79.0039 47.6054V45.4622C79.0039 44.6994 79.4534 44.2998 80.24 44.3725C83.0492 44.5904 87.7686 44.6631 91.8139 44.6994C91.2895 44.4815 90.9898 44.0092 90.9898 43.428V42.3746C84.5474 41.9387 81.7382 39.9046 81.7382 35.7999ZM93.874 56.8681C92.3008 59.7014 87.4315 61.6629 82.4124 61.445C81.5884 61.4086 81.1764 61.0091 81.1764 60.3189V57.5946C81.1764 56.9044 81.5884 56.5412 82.4124 56.5412C87.8061 56.5412 91.1771 54.8339 91.1771 52.0733V51.3831C91.1771 50.6203 91.6266 50.1844 92.4132 50.1844H95.3722C96.1588 50.1844 96.6083 50.6203 96.6083 51.3831V52.0733C96.6083 54.8339 99.9044 56.5412 105.298 56.5412C106.122 56.5412 106.534 56.9044 106.534 57.5946V60.3189C106.534 61.0091 106.122 61.4086 105.298 61.445C100.279 61.6629 95.4097 59.7014 93.874 56.8681ZM93.9863 38.1247C99.1553 38.1247 100.803 37.5435 100.803 35.7999C100.803 34.0563 99.1553 33.4751 93.9863 33.4751C88.8549 33.4751 87.1693 34.0563 87.1693 35.7999C87.1693 37.5435 88.8549 38.1247 93.9863 38.1247Z" fill="#1E89F4"/>
</svg>
